<?xml version="1.0" standalone="no"?>
<!DOCTYPE svg PUBLIC "-//W3C//DTD SVG 20010904//EN"
 "http://www.w3.org/TR/2001/REC-SVG-20010904/DTD/svg10.dtd">
<svg version="1.0" xmlns="http://www.w3.org/2000/svg"
 width="900.000000pt" height="600.000000pt" viewBox="0 0 900.000000 600.000000"
 preserveAspectRatio="xMidYMid meet">
<metadata>
Created by potrace 1.10, written by Peter Selinger 2001-2011
</metadata>
<g transform="translate(0.000000,600.000000) scale(0.100000,-0.100000)"
fill="#121212" stroke="none">
<path d="M1487 4138 c-171 -23 -322 -117 -401 -251 -90 -153 -100 -395 -21
-563 27 -59 110 -163 146 -182 28 -16 69 -76 69 -102 0 -10 7 -21 15 -24 9 -3
335 -6 725 -6 636 0 710 2 725 16 14 15 18 15 49 0 31 -14 133 -16 1022 -14
868 3 987 5 989 18 6 41 38 114 68 157 59 83 86 198 67 290 -13 62 -51 142
-81 169 -14 13 -16 21 -8 36 9 16 17 18 47 14 60 -10 94 18 127 104 23 61 33
74 61 86 45 19 72 18 77 -3 4 -16 3 -462 -1 -551 -2 -28 -8 -35 -39 -49 -51
-20 -70 -39 -84 -80 -9 -29 -8 -42 6 -74 15 -32 29 -44 76 -65 32 -15 64 -33
70 -40 9 -11 48 -14 170 -14 l158 0 38 41 c53 57 73 90 73 121 0 48 -21 78
-72 101 -29 13 -51 30 -54 42 -2 11 -3 146 -2 300 l3 280 38 -1 c50 -2 79 -31
107 -105 27 -75 55 -95 127 -92 l53 2 -2 -202 -3 -202 -30 -9 c-85 -25 -101
-53 -91 -147 8 -68 21 -110 39 -121 7 -4 177 -8 378 -8 314 0 368 2 379 15 7
8 25 15 41 15 21 0 29 5 30 18 3 46 19 102 29 102 5 0 10 -33 12 -72 l3 -73
393 0 c252 0 395 4 400 10 21 30 89 40 287 40 289 2 283 -4 287 262 2 127 1
133 -22 158 -33 35 -84 48 -124 31 -44 -19 -61 -42 -80 -108 -25 -86 -50 -110
-126 -119 -73 -8 -118 4 -125 34 -3 12 -4 148 -3 302 l3 279 34 7 c52 11 84
49 85 102 1 60 -28 92 -98 108 -70 15 -402 8 -437 -10 -84 -42 -76 -160 13
-196 24 -9 46 -22 50 -28 4 -7 8 -139 8 -294 0 -247 -2 -284 -16 -298 -9 -9
-23 -14 -31 -11 -8 3 -18 6 -23 6 -11 0 -44 71 -113 240 -30 74 -76 187 -102
250 -26 63 -63 153 -82 200 -19 47 -43 95 -55 106 -44 48 -143 48 -185 2 -11
-13 -38 -72 -61 -133 -218 -581 -253 -660 -292 -660 l-25 0 -3 280 c-1 154 0
289 3 301 3 14 21 27 50 38 70 27 95 94 58 157 -33 55 -24 54 -723 53 -355 -1
-692 -4 -750 -7 -80 -4 -115 -1 -147 10 -30 11 -66 14 -120 11 -99 -6 -161
-36 -231 -113 -57 -62 -50 -64 -67 20 -8 39 -38 62 -96 74 -65 14 -608 13
-675 -1 -106 -23 -129 -161 -32 -197 67 -25 63 -11 63 -212 l0 -184 -52 -3
c-62 -4 -99 -35 -109 -91 -9 -49 -39 -106 -66 -125 -25 -18 -153 -22 -178 -6
-13 8 -15 53 -15 302 l0 292 43 16 c74 26 101 99 60 160 -39 57 -72 63 -303
54 -110 -4 -234 -5 -275 -3 -117 6 -590 5 -744 -2 -101 -5 -152 -3 -185 6 -64
18 -126 22 -194 13z m238 -123 c61 -22 71 -23 85 -10 9 8 21 15 27 15 11 0 26
-241 16 -266 -9 -25 -31 -15 -38 17 -4 17 -13 42 -21 57 -8 15 -14 32 -14 38
0 11 -77 93 -115 124 -11 8 -47 16 -86 18 -55 3 -76 0 -113 -19 -115 -57 -185
-185 -203 -369 -8 -85 30 -244 72 -298 69 -90 124 -117 240 -117 72 0 99 4
137 22 52 25 97 78 107 125 4 17 12 33 19 36 16 5 16 -61 0 -91 -20 -34 -91
-107 -105 -107 -7 0 -13 -4 -13 -9 0 -13 -82 -33 -158 -38 -70 -5 -176 16
-244 49 -55 27 -139 112 -165 168 -51 108 -64 223 -38 332 32 130 99 230 190
284 83 49 131 61 245 63 88 0 116 -3 175 -24z m2899 15 c65 0 33 -11 -43 -15
-51 -2 -78 -8 -92 -21 -49 -44 -64 -132 -31 -182 29 -46 52 -63 141 -109 164
-85 201 -117 233 -201 53 -140 -25 -301 -165 -344 -63 -20 -172 -24 -182 -8
-3 6 -15 10 -27 10 -11 0 -36 8 -55 17 -28 13 -42 14 -63 6 -47 -17 -50 -7
-42 112 5 87 10 110 22 110 8 0 19 -16 25 -35 25 -79 77 -153 118 -166 12 -4
27 -13 35 -20 35 -35 149 4 184 63 16 27 22 74 19 142 -1 27 -11 44 -49 80
-27 25 -70 57 -97 71 -131 66 -195 117 -216 168 -15 37 -11 160 6 196 17 35
79 100 117 122 14 8 41 12 73 9 28 -3 68 -5 89 -5z m-2432 -212 l3 -203 35 1
c61 2 115 33 138 78 11 23 23 49 26 59 3 9 10 17 16 17 6 0 10 -58 10 -165 0
-140 -2 -165 -15 -165 -8 0 -15 7 -15 15 0 26 -49 114 -69 124 -10 6 -42 11
-72 13 l-54 3 -3 -139 c-1 -76 1 -143 6 -150 5 -6 12 -22 15 -36 4 -14 23 -36
43 -49 32 -22 46 -25 133 -24 112 0 155 15 201 71 16 20 33 54 38 76 5 27 14
42 25 44 15 3 17 -8 17 -101 0 -82 -3 -107 -15 -117 -12 -10 -41 -11 -123 -5
-119 9 -121 9 -352 0 -158 -7 -227 -1 -233 19 -1 6 13 14 31 18 27 7 37 18 53
54 17 42 19 71 19 334 0 306 -6 357 -50 387 -11 8 -20 21 -20 29 0 11 20 14
105 14 l105 0 2 -202z m396 190 c9 -12 16 -94 13 -160 -2 -43 -28 -35 -36 10
-8 49 -56 108 -95 117 -32 7 -45 19 -35 35 9 15 140 13 153 -2z m462 -2 c0 -8
-12 -23 -27 -34 -23 -17 -28 -30 -34 -88 -10 -90 -10 -392 0 -517 7 -90 10
-101 37 -128 39 -39 118 -54 215 -40 105 14 126 34 189 174 12 26 26 45 31 41
5 -3 9 -57 9 -120 l0 -114 -27 -11 c-19 -7 -62 -9 -128 -4 -114 9 -126 9 -327
0 -168 -8 -258 -1 -258 21 0 8 10 14 25 14 15 0 36 11 50 26 32 35 38 109 33
435 -4 276 -8 301 -50 315 -10 3 -18 14 -18 25 0 18 8 19 140 19 114 0 140 -3
140 -14z m702 -188 l3 -203 38 1 c79 3 135 50 161 137 3 10 10 15 16 12 6 -4
10 -69 10 -166 0 -135 -2 -159 -15 -159 -8 0 -15 7 -15 15 0 26 -49 114 -69
124 -10 6 -42 11 -72 13 l-54 3 -3 -139 c-1 -76 1 -143 6 -150 5 -6 12 -22 15
-36 4 -14 23 -36 43 -49 32 -22 46 -25 133 -24 112 0 155 15 201 71 16 20 33
54 38 76 5 27 14 42 25 44 15 3 17 -8 17 -107 l0 -111 -26 -6 c-15 -4 -70 -3
-123 1 -106 9 -105 9 -341 0 -158 -7 -227 -1 -233 19 -1 6 13 14 31 18 27 7
37 18 53 54 17 42 19 71 19 334 0 306 -6 357 -50 387 -11 8 -20 21 -20 29 0
11 20 14 105 14 l105 0 2 -202z m396 190 c9 -12 16 -94 13 -160 -2 -43 -28
-35 -36 10 -8 49 -56 108 -95 117 -32 7 -45 19 -35 35 9 15 140 13 153 -2z
m579 -10 c8 -7 18 -5 29 6 12 13 19 14 30 5 20 -16 20 -212 0 -228 -17 -14
-21 -8 -31 39 -9 49 -39 111 -70 148 -15 17 -24 36 -21 41 7 10 44 3 63 -11z
m379 11 c8 -13 -13 -29 -40 -29 -50 0 -126 -90 -126 -149 0 -16 -5 -21 -17
-19 -15 3 -18 16 -19 86 -3 128 -8 122 102 122 57 0 95 -4 100 -11z m294 -335
c0 -235 4 -360 12 -388 13 -48 44 -86 69 -86 30 0 32 -19 4 -30 -29 -11 -266
-12 -303 -2 -32 9 -28 25 8 35 19 5 39 20 50 40 19 30 20 52 20 405 l0 372 70
0 70 0 0 -346z m366 266 c25 -151 9 -186 -36 -84 -32 72 -70 109 -126 123 -42
11 -52 20 -37 35 4 4 48 5 97 4 l90 -3 12 -75z m380 68 c4 -7 0 -16 -11 -22
-57 -34 -55 -16 -55 -391 l0 -344 25 -26 c14 -14 36 -25 48 -25 12 0 28 -4 36
-9 11 -7 3 -12 -30 -21 -57 -16 -323 -10 -340 7 -13 13 -10 15 41 27 14 3 34
18 45 34 18 25 20 46 24 290 5 380 0 413 -63 456 -11 7 -16 18 -12 24 10 17
282 16 292 0z m549 -42 c14 -30 25 -60 25 -65 0 -6 4 -19 10 -29 5 -9 19 -39
30 -67 12 -27 25 -59 30 -70 5 -11 19 -45 30 -75 12 -30 28 -71 36 -90 21 -48
29 -66 54 -130 11 -30 25 -64 30 -75 5 -11 19 -42 30 -69 28 -62 51 -87 90
-95 37 -7 41 -23 8 -33 -30 -8 -262 -10 -310 -2 -46 8 -52 34 -9 34 29 0 71
38 71 64 0 13 -52 152 -76 204 l-15 32 -120 0 c-120 0 -159 -8 -159 -35 0 -7
-5 -26 -12 -42 -26 -65 -47 -129 -48 -146 0 -28 39 -77 61 -77 10 0 19 -7 19
-15 0 -19 -53 -28 -149 -24 -94 5 -121 20 -70 42 19 8 39 20 45 28 18 21 74
130 74 143 1 6 9 29 20 51 11 22 19 48 20 58 0 9 5 17 10 17 6 0 10 8 10 18 0
9 6 29 14 44 8 15 17 40 21 57 4 17 11 33 16 36 5 4 9 14 9 23 0 9 7 30 15 46
8 15 15 33 15 38 0 6 7 24 15 41 8 18 24 57 35 87 45 117 53 130 77 130 18 0
28 -11 48 -54z m775 43 c0 -6 -13 -24 -30 -40 -16 -16 -32 -44 -35 -62 -4 -18
-5 -163 -3 -322 3 -269 5 -292 23 -322 35 -57 125 -81 243 -63 99 14 159 74
178 177 3 18 10 36 15 39 19 12 29 -50 22 -147 -7 -119 -4 -116 -152 -104 -53
5 -125 7 -161 4 -143 -9 -409 -4 -421 8 -13 13 -9 16 41 27 14 3 33 18 43 35
15 26 17 64 17 361 l0 333 -36 33 c-19 19 -32 38 -29 44 9 14 285 13 285 -1z
m-2833 -145 c13 -21 23 -49 23 -61 l0 -21 -42 20 c-60 28 -78 47 -78 79 0 36
27 53 55 35 11 -7 30 -31 42 -52z m-3020 35 c37 -18 47 -31 79 -97 20 -42 44
-91 52 -109 9 -17 26 -36 39 -42 35 -16 95 -13 121 5 33 23 42 10 42 -64 0
-88 -6 -97 -52 -78 -28 12 -44 13 -74 5 -53 -15 -57 -20 -79 -90 -24 -83 -57
-118 -120 -130 -101 -19 -185 23 -230 116 -25 49 -28 67 -29 168 -1 96 2 121
23 175 30 79 94 149 142 155 19 2 36 5 38 5 3 1 24 -7 48 -19z m789 -6 l39
-17 -48 -7 c-27 -4 -57 -15 -68 -25 -22 -19 -49 -12 -49 13 0 34 15 44 76 52
6 0 29 -7 50 -16z m1562 1 l37 -17 -50 -9 c-27 -5 -58 -16 -67 -25 -36 -33
-67 16 -32 51 20 21 65 20 112 0z m-1234 -10 c3 -9 6 -96 6 -194 l0 -178 -58
1 c-82 2 -105 -15 -131 -101 -12 -39 -32 -79 -46 -92 -43 -41 -174 -48 -202
-11 -14 17 -18 71 -5 71 4 0 21 -9 37 -20 48 -32 100 -27 141 14 l34 34 0 162
0 162 23 -6 c58 -17 76 -17 106 -1 39 20 61 67 61 130 0 32 4 45 14 45 8 0 17
-7 20 -16z m1421 -167 c17 0 42 4 56 8 24 6 27 4 33 -28 7 -36 56 -113 88
-135 10 -7 18 -16 18 -20 0 -4 -39 -13 -86 -19 -47 -7 -96 -19 -109 -27 -15
-10 -30 -39 -44 -84 -12 -38 -32 -79 -45 -91 -31 -29 -88 -42 -149 -34 -51 6
-67 22 -67 67 0 31 13 33 47 6 42 -33 98 -27 139 14 l34 34 0 154 c0 85 3 158
7 161 4 4 16 4 27 0 12 -4 35 -7 51 -6z m350 -262 c44 -25 86 -53 93 -63 7 -9
12 -35 10 -57 -6 -83 -93 -84 -141 -1 -21 35 -67 147 -67 161 0 13 33 1 105
-40z m2177 -85 c27 -55 23 -78 -17 -97 -25 -12 -38 -27 -48 -56 l-13 -40 -22
37 c-12 20 -35 45 -52 54 -34 20 -38 47 -14 95 23 44 31 48 94 45 52 -3 56 -5
72 -38z"/>
<path d="M6582 3797 c-6 -6 -14 -25 -18 -41 -4 -16 -13 -41 -20 -55 -8 -14
-14 -32 -14 -39 0 -12 -3 -21 -33 -80 -10 -19 -15 -38 -11 -43 3 -5 52 -9 110
-9 114 0 130 8 102 53 -8 12 -25 51 -38 87 -13 36 -26 70 -30 75 -4 6 -10 22
-14 38 -7 29 -18 34 -34 14z"/>
<path d="M1360 2923 c-79 -5 -103 -12 -97 -27 3 -8 -2 -24 -10 -36 -9 -13 -16
-43 -16 -68 0 -39 5 -50 36 -79 21 -19 47 -33 62 -33 l25 0 0 -304 0 -304 -33
-6 c-19 -3 -46 -20 -62 -36 -23 -24 -28 -39 -28 -75 0 -39 5 -52 32 -78 l31
-32 293 -3 c305 -4 357 1 450 40 l47 21 25 -26 c14 -13 39 -27 56 -31 60 -12
3033 -7 3068 5 17 6 42 27 55 46 l23 34 21 -35 c14 -24 32 -38 59 -46 26 -8
170 -10 460 -8 419 3 422 3 452 25 l30 23 47 -25 47 -25 387 0 c489 0 555 10
682 107 48 35 123 151 138 212 6 25 15 62 21 82 23 89 -2 264 -51 365 -42 86
-90 145 -163 200 -72 56 -79 63 -73 85 2 12 -5 19 -26 23 -39 8 -731 8 -752 0
-8 -3 -12 -12 -10 -19 7 -17 -22 -85 -35 -85 -23 0 -61 44 -61 72 0 20 -6 29
-22 33 -13 3 -178 4 -368 3 -338 -3 -345 -3 -343 -23 2 -11 -2 -40 -9 -66 -9
-38 -8 -51 6 -81 17 -35 34 -48 89 -68 l27 -10 -2 -297 -3 -298 -28 -3 c-26
-3 -30 2 -66 80 -21 46 -53 119 -71 163 -39 98 -71 178 -149 365 -65 158 -78
204 -61 215 27 17 -10 25 -115 25 -127 0 -152 -5 -134 -26 18 -22 13 -39 -107
-349 -13 -33 -38 -99 -56 -147 -19 -47 -40 -93 -47 -102 -13 -15 -16 -15 -37
4 -32 31 -91 36 -134 12 -28 -15 -39 -31 -56 -78 -40 -115 -83 -149 -199 -160
l-67 -6 16 31 c9 17 51 84 93 148 138 213 185 287 249 384 35 53 68 108 74
124 22 57 -16 131 -80 157 -26 11 -2009 12 -2036 1 -10 -3 -11 -9 -5 -17 5 -6
9 -43 8 -83 -2 -63 1 -74 22 -97 15 -16 41 -29 63 -32 l38 -7 0 -182 0 -182
-50 -5 c-67 -7 -93 -33 -119 -117 -28 -92 -52 -112 -138 -118 -37 -2 -74 0
-82 6 -8 5 -18 33 -22 63 -9 66 -10 474 0 508 5 16 17 28 40 34 18 5 44 24 58
43 23 30 25 40 21 97 -3 38 -1 69 5 75 19 19 -34 22 -323 19 l-285 -3 3 -51
c2 -29 0 -54 -6 -57 -5 -4 -24 6 -42 22 -26 22 -32 33 -28 54 4 19 1 28 -11
31 -22 6 -572 14 -641 9z m259 -122 c9 -6 10 -11 2 -15 -16 -11 -14 -710 3
-750 24 -56 50 -71 125 -70 57 1 73 6 114 34 57 38 71 58 87 125 10 42 10 58
-3 103 -31 101 -81 141 -197 157 -30 4 -64 11 -75 15 -21 8 -21 8 93 26 51 8
99 61 108 120 19 126 -42 222 -151 239 -43 7 -47 9 -25 16 43 12 143 9 188 -6
62 -22 91 -43 119 -89 21 -33 26 -52 25 -107 0 -78 -28 -133 -87 -169 -37 -23
-34 -39 8 -40 29 0 95 -48 121 -88 13 -20 30 -60 37 -89 17 -70 -6 -146 -61
-201 -64 -63 -115 -72 -425 -69 -163 1 -261 6 -262 12 -2 6 8 13 21 16 13 4
34 17 47 30 l24 24 0 350 0 350 -26 28 c-15 15 -36 27 -47 27 -22 0 -36 13
-25 24 10 9 246 7 262 -3z m944 -6 c-1 -5 -10 -12 -20 -14 -21 -4 -53 -35 -70
-69 -10 -18 -13 -101 -13 -312 0 -327 4 -350 76 -405 36 -27 44 -29 124 -29
75 1 92 4 134 29 52 31 92 85 104 143 5 22 14 37 22 37 12 0 16 -21 18 -104 2
-64 -1 -108 -8 -116 -9 -11 -82 -13 -361 -12 -224 1 -349 6 -350 12 0 6 7 12
16 13 26 6 55 40 71 84 20 59 20 587 0 646 -16 45 -45 78 -72 84 -9 1 -19 9
-22 16 -3 10 34 12 175 10 112 -2 177 -7 176 -13z m777 0 c0 -9 -9 -15 -22
-15 -14 0 -34 -14 -53 -38 l-30 -37 0 -330 0 -331 25 -32 c14 -17 37 -35 53
-39 15 -4 27 -12 27 -18 0 -6 -67 -10 -180 -10 -113 0 -180 4 -181 10 0 6 8
12 18 15 11 3 32 16 49 28 l29 24 0 352 0 352 -29 27 c-16 15 -37 27 -47 27
-20 0 -32 13 -22 24 3 3 87 6 185 6 152 0 178 -2 178 -15z m450 6 l105 -6
-131 -7 c-111 -6 -138 -11 -181 -33 -59 -29 -100 -73 -132 -139 -40 -81 -52
-49 -30 83 21 125 2 111 142 110 67 -1 169 -4 227 -8z m307 -7 c3 -9 -12 -42
-39 -82 -44 -65 -161 -244 -266 -407 -29 -44 -56 -87 -62 -95 -76 -113 -142
-216 -152 -238 -12 -26 -17 -27 -91 -30 -75 -3 -77 -2 -77 21 0 14 43 89 99
173 334 504 411 624 411 638 0 9 -6 17 -12 17 -33 3 55 17 115 18 53 1 69 -2
74 -15z m463 7 l105 -6 -131 -7 c-112 -6 -138 -11 -182 -33 -64 -32 -120 -97
-129 -147 -11 -73 -28 -35 -31 69 -4 135 -5 133 146 132 64 -1 164 -4 222 -8z
m302 -19 c-2 -12 -29 -62 -61 -110 -31 -48 -81 -123 -109 -167 -29 -44 -57
-87 -62 -95 -6 -8 -40 -60 -75 -115 -36 -55 -69 -107 -75 -115 -63 -92 -130
-201 -130 -213 0 -8 -7 -18 -16 -21 -20 -8 -128 -8 -148 0 -27 11 -38 -7 372
612 90 137 132 209 129 222 -6 23 13 28 108 26 67 -1 70 -2 67 -24z m538 -12
c20 -36 47 -98 70 -160 14 -37 45 -111 60 -145 5 -11 19 -45 30 -75 11 -30 25
-64 30 -75 16 -36 47 -109 60 -145 46 -126 89 -185 143 -200 10 -3 18 -9 18
-15 -1 -6 -68 -10 -181 -10 -113 0 -180 4 -181 10 0 6 8 12 18 14 24 4 53 31
64 59 9 23 -15 110 -47 171 -8 14 -14 31 -14 37 0 6 -9 19 -19 29 -17 14 -39
17 -137 17 l-118 0 -23 -43 c-13 -24 -23 -51 -23 -59 0 -9 -5 -21 -11 -27 -6
-6 -13 -38 -16 -72 -6 -67 7 -94 55 -112 48 -18 8 -29 -108 -29 -111 0 -157
11 -113 27 32 11 83 72 109 131 13 31 29 64 33 72 5 9 12 30 15 48 4 17 12 34
17 37 5 4 9 13 9 21 0 14 29 88 49 124 5 9 12 30 15 48 4 17 12 34 17 37 5 4
9 14 9 23 0 9 7 30 15 46 8 15 15 33 15 40 0 6 6 22 13 36 7 14 24 54 37 90
23 62 45 92 63 87 5 -1 17 -18 27 -37z m951 24 c92 -24 134 -54 165 -120 19
-39 24 -119 11 -167 -11 -40 -83 -114 -118 -122 -32 -7 -36 -20 -15 -44 8 -9
48 -82 89 -163 80 -157 111 -203 141 -211 10 -3 15 -10 11 -16 -3 -7 -43 -11
-95 -11 -86 0 -89 1 -109 29 -12 16 -21 32 -21 36 0 5 -16 41 -35 81 -19 40
-35 77 -35 82 0 6 -3 12 -7 14 -5 2 -17 21 -28 43 -22 44 -107 132 -139 145
-16 6 -5 10 44 15 58 7 69 12 106 49 69 68 80 159 31 251 -28 50 -89 83 -168
92 l-59 6 0 -369 0 -369 30 -37 c17 -20 39 -38 51 -40 11 -2 20 -7 19 -13 0
-6 -64 -10 -170 -10 -106 0 -170 4 -171 10 0 6 7 12 16 13 26 6 55 40 71 84
20 59 20 587 0 646 -16 45 -45 78 -72 84 -9 1 -19 9 -22 16 -6 20 398 17 479
-4z m889 -1 c72 -18 145 -61 197 -117 63 -66 75 -87 103 -168 19 -58 22 -82
18 -185 -3 -103 -7 -125 -30 -173 -49 -101 -132 -168 -236 -192 -26 -6 -172
-12 -324 -15 -246 -3 -278 -2 -278 12 0 8 9 15 19 15 10 0 33 16 50 35 l31 36
0 334 0 334 -31 36 c-17 19 -39 35 -49 35 -21 0 -33 13 -23 24 11 11 504 1
553 -11z m-5040 -118 c12 -7 14 -375 3 -375 -5 0 -21 21 -38 48 -16 26 -38 55
-49 66 -18 18 -18 20 0 75 13 37 18 81 17 133 l-1 76 29 -8 c15 -5 33 -11 39
-15z m4473 3 c16 -12 17 -40 15 -308 -4 -360 -5 -362 -97 -181 -34 66 -61 125
-61 132 0 7 11 24 24 38 60 64 92 167 82 260 -8 70 1 85 37 59z m-2948 -18
c-4 -12 -25 -49 -48 -84 -23 -34 -103 -155 -177 -269 -74 -114 -140 -207 -147
-207 -7 0 -14 15 -17 33 -4 28 -2 310 2 345 2 9 11 9 39 -3 47 -20 103 -12
131 18 11 12 27 46 37 74 23 71 76 108 163 112 19 1 22 -3 17 -19z m761 12
c15 -9 9 -21 -60 -127 -126 -194 -168 -255 -174 -255 -4 0 -25 10 -48 21 -71
38 -153 2 -168 -73 -11 -54 -54 -117 -95 -138 -42 -21 -171 -39 -171 -24 0 10
254 402 287 443 l20 24 35 -38 c32 -35 40 -39 86 -39 64 -1 96 26 118 101 11
37 24 59 45 74 45 32 102 46 125 31z m-2718 -32 c14 -28 10 -84 -9 -106 -6 -8
-20 -14 -31 -14 -17 0 -18 6 -14 68 3 37 5 71 6 75 0 18 35 1 48 -23z m4496
-21 c21 -51 -10 -148 -34 -109 -11 17 -13 123 -3 133 13 14 24 6 37 -24z
m-4437 -374 c17 -19 23 -39 23 -73 0 -26 -4 -52 -8 -58 -16 -23 -58 -44 -89
-44 -29 0 -33 4 -37 33 -6 41 -6 125 0 156 5 21 9 23 47 18 28 -4 49 -14 64
-32z m2333 -103 c0 -59 -4 -88 -25 -179 -5 -23 -8 -23 -158 -23 -83 0 -163 3
-176 7 -23 6 -23 7 -5 14 10 4 39 8 64 9 25 0 63 9 85 20 22 11 44 19 49 20 5
0 28 19 51 43 37 36 66 85 88 150 13 36 27 4 27 -61z m772 37 c-2 -13 -7 -67
-11 -120 -4 -52 -11 -101 -15 -107 -8 -13 -301 -16 -346 -3 -24 7 -24 7 9 14
18 4 50 7 70 7 20 1 54 9 76 20 22 11 45 19 52 20 18 0 100 97 107 126 15 59
65 96 58 43z m468 -45 c11 -26 20 -50 20 -55 0 -5 -16 -15 -35 -23 -20 -9 -43
-28 -52 -44 l-17 -29 -21 31 c-11 17 -33 37 -48 44 -32 16 -32 18 -7 76 l19
46 60 0 60 0 21 -46z m854 -30 c10 -25 7 -34 -9 -34 -9 0 -15 9 -15 25 0 28
15 34 24 9z"/>
<path d="M5298 2573 c-9 -21 -20 -50 -23 -66 -4 -15 -11 -30 -16 -33 -5 -3 -9
-13 -9 -22 0 -9 -7 -30 -15 -45 -14 -28 -20 -56 -17 -90 2 -16 12 -17 100 -15
l97 3 3 27 c2 15 -3 42 -12 60 -39 88 -56 128 -56 136 0 4 -8 25 -18 45 l-18
37 -16 -37z"/>
<path d="M6952 2772 c-11 -7 -13 -77 -10 -363 2 -195 7 -362 12 -371 4 -9 24
-30 44 -45 34 -25 44 -28 115 -27 54 1 83 6 95 17 9 8 26 18 38 21 12 4 35 21
51 40 27 29 43 55 87 141 5 11 12 73 14 138 4 103 2 126 -18 185 -27 78 -40
102 -94 160 -36 39 -69 59 -151 92 -39 15 -166 24 -183 12z m165 -113 c118
-44 183 -156 183 -315 0 -150 -63 -254 -163 -269 -57 -9 -84 0 -90 28 -8 30
-8 532 -1 551 7 19 31 20 71 5z"/>
</g>
</svg>
